<svg class="svg-icon" style="width: 1em;height: 1em;vertical-align: middle;fill: currentColor;overflow: hidden;" viewBox="0 0 1024 1024" version="1.1" xmlns="http://www.w3.org/2000/svg"><path d="M530.473597 20.838126l437.376792 202.482024c13.991295 7.03635 22.117694 20.560844 22.117693 34.609377v508.517439c0 16.493193-10.468033 29.992249-26.144643 35.432319l-433.34857 201.661626a45.611622 45.611622 0 0 1-36.667369 0L56.994177 799.962478c-14.553491-6.486873-22.681161-19.985929-22.681162-33.515512h-0.296361v-508.519983c0-16.469026 11.354572-30.017688 26.494426-35.930918L493.806229 20.838126c12.210585-5.663931 25.609158-5.663931 36.667368 0zM367.001848 164.383727l363.556174 169.250154 145.996622-67.321025L512.436274 97.088141l-145.434426 67.295586z m-218.687759 101.929129l364.122185 169.224716 163.443767-76.477692-363.825825-168.975416-163.740127 76.228392z m-31.973926 35.956357v440.103822l371.074587 173.316533V475.012103L116.340163 302.269213z m420.522369 613.420355l371.659677-173.316533V302.269213q-185.818391 85.972693-371.659677 172.74289v440.677465z"  /></svg>